# xmcd
#
# Track frame offsets: 
#        150
#        16271
#        32868
#        49613
#        66270
#        82506
#        96906
#        113447
#        129789
#        144695
#        159891
#        180169
#        196075
#
# Disc length: 2856 seconds
#
# Revision: 2
# Processed by: cddbd v1.5.2PL0 Copyright (c) Steve Scherf et al.
# Submitted via: ExactAudioCopy v0.99pb4
#
DISCID=8f0b260d
DTITLE=Thomas Anders - This time
DYEAR=2004
DGENRE=Pop
TTITLE0=King of love
TTITLE1=Independent girl
TTITLE2=Tonight is the night
TTITLE3=Live your dream
TTITLE4=Nothing's gonna stop me now
TTITLE5=Playing with dynamite
TTITLE6=Every little thing
TTITLE7=World of stars
TTITLE8=Night to remember
TTITLE9=This time
TTITLE10=In your eyes
TTITLE11=How deep is your love
TTITLE12=Paradise
EXTD=YEAR: 2004
EXTT0=
EXTT1=
EXTT2=
EXTT3=
EXTT4=
EXTT5=
EXTT6=
EXTT7=
EXTT8=
EXTT9=
EXTT10=
EXTT11=
EXTT12=
PLAYORDER=
